<svg width="19.000000" height="19.000000" viewBox="0 0 19 19" fill="none" xmlns="http://www.w3.org/2000/svg" xmlns:xlink="http://www.w3.org/1999/xlink">
	<desc>
			Created with Pixso.
	</desc>
	<defs/>
	<path id="Vector" d="M0.68 12.44C1.13 13.53 1.8 14.52 2.63 15.36C3.47 16.19 4.46 16.86 5.55 17.31C6.64 17.76 7.81 18 9 18C10.18 18 11.35 17.76 12.44 17.31C13.53 16.86 14.52 16.19 15.36 15.36C16.19 14.52 16.86 13.53 17.31 12.44C17.76 11.35 18 10.18 18 9C18 7.81 17.76 6.64 17.31 5.55C16.86 4.46 16.19 3.47 15.36 2.63C14.52 1.8 13.53 1.13 12.44 0.68C11.35 0.23 10.18 0 9 0C7.81 0 6.64 0.23 5.55 0.68C4.46 1.13 3.47 1.8 2.63 2.63C1.8 3.47 1.13 4.46 0.68 5.55C0.23 6.64 0 7.81 0 9C0 10.18 0.23 11.35 0.68 12.44Z" stroke="#282828" stroke-opacity="0.800000" stroke-width="1.500000" stroke-linejoin="round"/>
</svg>
